# xmcd CD database file
#
# Track frame offsets:
#	150
#	16874
#	35775
#	62259
#	82810
#	102369
#	124641
#
# Disc length: 1902 seconds
#
# Revision: 0
# Processed by: cddbd v1.4PL0 Copyright (c) Steve Scherf et al.
# Submitted via: Feurio! 1.66 - http://www.feurio.com
#
DISCID=49076c07
DTITLE=Solid Rock - Solid Rock
DYEAR=1900
DGENRE=blues
TTITLE0=Busted Up
TTITLE1=Too Much Of A Good Nothing
TTITLE2=Still Got The Blues
TTITLE3=Black Magic Woman
TTITLE4=Mustang Sally
TTITLE5=Big Legged Woman
TTITLE6=Rugged Road
EXTD=mobiljoe
EXTT0=Robben Ford
EXTT1=Savoy Brown
EXTT2=Gary Moore
EXTT3=Peter Green
EXTT4=Commitments
EXTT5=Chris Duarte
EXTT6=Robben Ford
PLAYORDER=
